<svg width="71" height="72" viewBox="0 0 71 72" fill="none" xmlns="http://www.w3.org/2000/svg">
<g clip-path="url(#clip0_3_241)">
<path fill-rule="evenodd" clip-rule="evenodd" d="M35.5 0.104004C22.4292 0.103948 11.8332 10.8491 11.8332 24.104V33.5028C10.2728 33.7449 8.31163 34.2411 6.42203 35.2704C3.20981 37.0203 1.49895 40.0383 0.691261 42.822C-0.107376 45.5742 -0.138164 48.4593 0.336172 50.5374C0.350777 50.6013 0.367451 50.6649 0.386165 50.7276C0.645525 51.5991 1.04774 52.3548 1.56785 52.9995C1.19314 53.5032 0.977071 54.012 0.855004 54.3321C0.571235 55.0767 0.39643 55.9116 0.284941 56.7102C0.0591123 58.3281 0.0298861 60.2697 0.177277 62.1345C0.323102 63.9795 0.658006 65.9604 1.27116 67.5942C1.57576 68.406 2.00714 69.291 2.64164 70.038C3.29066 70.8018 4.30913 71.5917 5.71854 71.7285C12.5413 72.3921 16.2415 71.301 18.8726 69.2481C19.6947 68.6067 20.4828 67.7781 21.0012 67.2333C21.1619 67.0644 21.2967 66.9225 21.3985 66.8223C21.9327 66.2955 22.3061 66.0354 22.8314 65.8749L35.4837 61.9908L46.5485 65.5155L46.5822 65.526C47.0366 65.6649 47.6561 65.9928 48.6862 66.642C48.9113 66.7839 49.156 66.9411 49.4175 67.1091C50.2337 67.6335 51.2123 68.2623 52.2539 68.8488C55.1256 70.4652 58.8572 71.9997 63.8621 71.9997C66.7323 71.9997 68.4866 69.9228 69.3862 68.1222C70.3092 66.2748 70.7556 63.9987 70.8743 61.8459C70.9947 59.6676 70.7947 57.3462 70.2172 55.3209C69.9989 54.5547 69.6951 53.7225 69.2708 52.9263C71.0793 50.4645 71.1594 47.2194 70.6784 44.6976C70.0098 41.1927 68.0635 37.5054 65.7256 35.583C63.7305 33.9426 60.9585 33.4809 59.1667 33.3222V24.104C59.1667 10.8492 48.5708 0.10406 35.5 0.104004ZM15.0281 39.2703L15.0772 39.2718C15.1461 39.276 15.2153 39.2781 15.2846 39.2781C16.7759 39.2781 17.7499 40.4154 17.7499 41.5308V43.9488C17.7499 45.2832 18.6191 46.4571 19.8827 46.8297L25.2154 48.4008L19.1786 50.2545C15.6034 49.5726 11.9902 49.6284 8.9754 50.0748C7.65814 49.9065 6.89811 49.6689 6.47282 49.4406C6.20009 49.2945 6.12179 49.1925 6.07667 49.074C5.86796 48.0426 5.85734 46.2732 6.3673 44.5155C6.8869 42.7248 7.83058 41.3139 9.22203 40.5561C10.5083 39.8553 11.9757 39.5166 13.1996 39.3687C13.7971 39.2964 14.3013 39.2736 14.6467 39.2685C14.8185 39.2661 14.9484 39.2682 15.0281 39.2703ZM44.0966 48.9597L36.3425 51.2532L20.1793 56.2164C19.6961 56.3646 19.1835 56.3853 18.6902 56.2758C15.5363 55.5768 12.1989 55.6233 9.49864 56.0634C8.1378 56.2854 7.03881 56.5908 6.26059 56.8932C6.22154 57.0648 6.18063 57.2829 6.14321 57.5511C5.99053 58.6452 5.95479 60.1335 6.07502 61.6551C6.19684 63.1962 6.46217 64.5576 6.80093 65.4603C6.85338 65.6001 6.90359 65.718 6.94982 65.8155C12.4413 66.2595 14.3083 65.2389 15.2646 64.4928C15.7257 64.1331 16.0081 63.834 16.3994 63.4197C16.6321 63.1731 16.9034 62.8857 17.2738 62.5206C18.1632 61.6437 19.3376 60.6768 21.1221 60.1305L34.6427 55.9803C34.6891 55.9659 34.7356 55.953 34.7823 55.941L54.4339 50.958C54.8759 50.8461 55.3374 50.8389 55.7823 50.9376C58.1076 51.4521 61.3943 51.1347 63.7852 49.9266C64.6952 49.4667 65.3469 48.3393 64.8694 45.837C64.3982 43.3668 63.011 41.0754 61.999 40.2435C61.4608 39.801 60.2237 39.4317 58.58 39.2931C57.8496 39.2316 57.1778 39.2256 56.6879 39.2358C56.4447 39.2409 56.2518 39.2499 56.1249 39.2571L56.0412 39.2622C55.9332 39.2727 55.8243 39.2781 55.7152 39.2781C54.2239 39.2781 53.25 40.4154 53.25 41.5308V43.8051V43.9488C53.25 45.2745 52.3918 46.443 51.1395 46.8228L44.1164 48.9537L44.0966 48.9597ZM44.375 39V42.6126L47.3333 41.715V41.5308C47.3333 37.731 49.8858 34.6677 53.25 33.6444V24.104C53.25 14.1629 45.303 6.10404 35.5 6.10401C25.6969 6.10395 17.7499 14.1628 17.7499 24.104V33.6444C21.1141 34.6677 23.6665 37.731 23.6665 41.5308V41.6964L26.6249 42.5682V39C26.6249 37.3431 27.9494 36 29.5832 36C31.2172 36 32.5417 37.3431 32.5417 39V43.0797H35.5H38.4583V39C38.4583 37.3431 39.7828 36 41.4167 36C43.0505 36 44.375 37.3431 44.375 39ZM6.41253 56.4093C6.41327 56.4114 6.4038 56.4354 6.38179 56.4747C6.40076 56.427 6.41176 56.4072 6.41253 56.4093ZM48.3063 59.7864L46.4014 59.1795L55.2374 56.9391C58.004 57.4077 61.3032 57.1827 64.2612 56.1939C64.3508 56.4102 64.4434 56.6718 64.5334 56.9868C64.894 58.2525 65.0567 59.8824 64.9671 61.5105C64.8756 63.1641 64.539 64.5486 64.1083 65.4105C63.9358 65.7558 63.8044 65.9238 63.7284 65.9994C60.0905 65.973 57.3908 64.878 55.1256 63.603C54.2475 63.1086 53.4828 62.6175 52.7006 62.115C52.4083 61.9272 52.1137 61.7379 51.8099 61.5465C50.7987 60.909 49.5885 60.1812 48.3063 59.7864ZM63.6544 66.0534C63.6539 66.0501 63.6686 66.0375 63.7003 66.0252C63.671 66.0504 63.655 66.0567 63.6544 66.0534ZM32.5417 27.0001C32.5417 30.3138 26.9381 33 23.6725 33C20.6721 33 20.6895 30.7323 20.7121 27.7935C20.7141 27.534 20.7162 27.269 20.7162 27.0001C20.7162 23.6864 23.3634 21.0001 26.6289 21.0001C29.8945 21.0001 32.5417 23.6864 32.5417 27.0001ZM50.284 27.0001C50.284 27.2691 50.2857 27.5339 50.2878 27.7935C50.3106 30.7323 50.328 33 47.3274 33C44.062 33 38.4583 30.3138 38.4583 27.0001C38.4583 23.6864 41.1054 21.0001 44.3711 21.0001C47.6366 21.0001 50.284 23.6864 50.284 27.0001Z" fill="#251C4A"/>
</g>
<defs>
<clipPath id="clip0_3_241">
<rect width="71" height="72" fill="white"/>
</clipPath>
</defs>
</svg>
